<svg xmlns="http://www.w3.org/2000/svg">
    <symbol xmlns="http://www.w3.org/2000/svg" id="github" viewBox="0 0 25 22">
       <path d="M22.9561 6.22242C23.2266 5.41088 23.362 4.56961 23.362 3.69829C23.362 2.53639 23.1063 1.44458 22.5956 0.422976C21.5241 0.422976 20.5776 0.618467 19.7561 1.00898C18.935 1.39959 17.9985 2.00554 16.9472 2.82681C15.6252 2.50634 14.2225 2.34611 12.7405 2.34611C11.1178 2.34611 9.57025 2.5215 8.09799 2.87202C7.02639 2.03059 6.07987 1.41227 5.25854 1.01655C4.43721 0.620835 3.48575 0.423028 2.40394 0.423028C1.89314 1.44464 1.63776 2.5365 1.63776 3.69834C1.63776 4.57982 1.7729 5.4312 2.04338 6.25237C0.681037 7.84503 0 9.8281 0 12.2019C0 14.2855 0.310366 15.943 0.931467 17.1751C1.26209 17.8259 1.69265 18.4018 2.22355 18.9028C2.75425 19.4035 3.36025 19.8094 4.04139 20.12C4.72264 20.4302 5.40857 20.6883 6.09976 20.8935C6.7909 21.0987 7.55456 21.2491 8.39094 21.3439C9.22726 21.4394 9.96592 21.5019 10.6069 21.5322C11.2479 21.5619 11.9589 21.5771 12.7404 21.5771C13.6617 21.5771 14.4978 21.5543 15.2494 21.5096C16.0006 21.4646 16.8593 21.3542 17.826 21.1793C18.7925 21.0039 19.6439 20.7659 20.3802 20.4655C21.1164 20.1651 21.8227 19.7343 22.4988 19.1736C23.1748 18.6124 23.703 17.9465 24.0838 17.1752C24.6944 15.9331 25.0001 14.2753 25.0001 12.202C24.9997 9.8181 24.3186 7.82498 22.9561 6.22242ZM21.1539 17.1522C20.8333 17.8085 20.4276 18.3239 19.9369 18.6998C19.446 19.0755 18.8351 19.3759 18.104 19.6015C17.3726 19.8268 16.6718 19.9745 16.0006 20.0443C15.3293 20.1145 14.5834 20.1495 13.7618 20.1495H11.2377C10.4165 20.1495 9.67013 20.1145 8.99915 20.0443C8.32811 19.9745 7.62702 19.8268 6.89578 19.6015C6.1648 19.3759 5.55391 19.0755 5.063 18.6998C4.57209 18.3238 4.16647 17.8085 3.84595 17.1522C3.52548 16.496 3.36519 15.7274 3.36519 14.8461C3.36519 13.6438 3.71076 12.6221 4.40196 11.7811C5.0931 10.9397 6.02951 10.5191 7.2113 10.5191C7.64217 10.5191 8.61874 10.6242 10.1412 10.8346C10.8522 10.9447 11.6386 10.9998 12.4998 10.9998C13.3614 10.9998 14.1476 10.9449 14.8586 10.8346C16.4013 10.6242 17.3776 10.5191 17.7885 10.5191C18.9702 10.5191 19.9066 10.9399 20.5978 11.7811C21.289 12.6224 21.6343 13.6438 21.6343 14.8461C21.6343 15.7276 21.474 16.4966 21.1539 17.1522Z" />
		<path d="M8.78134 12.4723C8.47581 12.1316 8.11287 11.9612 7.69211 11.9612C7.27123 11.9612 6.90825 12.1318 6.60277 12.4723C6.29746 12.8126 6.08197 13.1934 5.95684 13.6136C5.83144 14.0347 5.76892 14.4452 5.76892 14.8461C5.76892 15.2466 5.83159 15.6572 5.95684 16.0782C6.08181 16.4987 6.2972 16.8792 6.60277 17.2195C6.9084 17.5603 7.27123 17.7306 7.69211 17.7306C8.11287 17.7306 8.47597 17.5599 8.78134 17.2195C9.08676 16.8792 9.30214 16.4987 9.42727 16.0782C9.55252 15.6572 9.61519 15.2466 9.61519 14.8461C9.61519 14.4456 9.55267 14.0347 9.42727 13.6136C9.30209 13.1935 9.08691 12.813 8.78134 12.4723Z" />
		<path d="M18.3968 12.4723C18.0914 12.1316 17.7284 11.9612 17.3077 11.9612C16.8872 11.9612 16.5239 12.1318 16.2184 12.4723C15.9129 12.8126 15.6976 13.1934 15.5726 13.6136C15.4471 14.0347 15.3845 14.4452 15.3845 14.8461C15.3845 15.2466 15.4471 15.6572 15.5726 16.0782C15.6976 16.4987 15.913 16.8792 16.2184 17.2195C16.524 17.5603 16.8872 17.7306 17.3077 17.7306C17.7284 17.7306 18.0915 17.5599 18.3968 17.2195C18.7021 16.8792 18.9176 16.4987 19.0429 16.0782C19.1681 15.6572 19.2307 15.2466 19.2307 14.8461C19.2307 14.4456 19.1681 14.0347 19.0429 13.6136C18.9176 13.1935 18.7021 12.813 18.3968 12.4723Z" />
    </symbol>
	<symbol xmlns="http://www.w3.org/2000/svg" id="insta" viewBox="0 0 25 26">
		<path d="M3.20884 0.5H21.7912C23.5559 0.5 24.9997 1.80654 24.9997 3.70858V22.2914C24.9997 24.1935 23.5559 25.5 21.7912 25.5H3.20884C1.44361 25.5 0 24.1935 0 22.2914V3.70858C0 1.80654 1.44361 0.5 3.20884 0.5ZM18.2114 3.27761C17.5923 3.27761 17.0864 3.78379 17.0864 4.40318V7.0971C17.0864 7.71623 17.5923 8.22268 18.2114 8.22268H21.037C21.6561 8.22268 22.1626 7.71623 22.1626 7.0971V4.40318C22.1626 3.78379 21.6561 3.27761 21.037 3.27761H18.2114ZM22.1744 11.0724H19.9741C20.1823 11.7521 20.2949 12.4721 20.2949 13.217C20.2949 17.3754 16.8153 20.7462 12.5237 20.7462C8.23246 20.7462 4.75332 17.3754 4.75332 13.217C4.75332 12.4716 4.86575 11.7519 5.07418 11.0724H2.77812V21.6328C2.77812 22.1792 3.22527 22.6266 3.77201 22.6266H21.181C21.7278 22.6266 22.1749 22.1795 22.1749 21.6328V11.0724H22.1744ZM12.5235 8.08073C9.75076 8.08073 7.5027 10.2587 7.5027 12.9457C7.5027 15.6327 9.75076 17.8107 12.5235 17.8107C15.2965 17.8107 17.5448 15.6327 17.5448 12.9457C17.5448 10.2587 15.2967 8.08073 12.5235 8.08073Z" />
	</symbol>
	<symbol xmlns="http://www.w3.org/2000/svg" id="vk" viewBox="0 0 32 20">
		<path d="M31.8304 17.3598C31.7916 17.2763 31.7555 17.207 31.7219 17.1515C31.1667 16.1516 30.1058 14.9243 28.5397 13.4692L28.5066 13.4358L28.49 13.4195L28.4733 13.4028H28.4564C27.7457 12.7252 27.2956 12.2696 27.1071 12.0363C26.7622 11.592 26.6849 11.1423 26.8734 10.6866C27.0066 10.3423 27.5068 9.61515 28.3729 8.50423C28.8285 7.91547 29.1893 7.44361 29.4558 7.0881C31.3775 4.53327 32.2107 2.90071 31.9551 2.18975L31.8558 2.02361C31.7891 1.92359 31.617 1.83209 31.3396 1.74864C31.0616 1.66537 30.7062 1.65159 30.273 1.70709L25.4747 1.74024C25.397 1.71269 25.286 1.71526 25.1414 1.74864C24.9969 1.78202 24.9247 1.79877 24.9247 1.79877L24.8412 1.84049L24.7749 1.89062C24.7193 1.92377 24.6582 1.98207 24.5915 2.0654C24.5252 2.14844 24.4697 2.24589 24.4253 2.35694C23.9029 3.70094 23.309 4.95052 22.6424 6.10562C22.2314 6.7944 21.8539 7.39132 21.5092 7.89674C21.165 8.40199 20.8762 8.77424 20.6431 9.01286C20.4097 9.25171 20.199 9.44306 20.0098 9.58761C19.8209 9.73221 19.6767 9.79331 19.5769 9.77096C19.4768 9.74861 19.3826 9.72644 19.2933 9.70426C19.1379 9.60424 19.0129 9.46821 18.9187 9.29606C18.824 9.12391 18.7603 8.90723 18.727 8.64621C18.6938 8.38501 18.6742 8.16034 18.6686 7.97144C18.6634 7.78277 18.6658 7.51591 18.6771 7.17161C18.6886 6.82713 18.6938 6.59406 18.6938 6.47186C18.6938 6.04971 18.7021 5.59156 18.7186 5.09728C18.7354 4.60301 18.749 4.21138 18.7604 3.92287C18.7717 3.63407 18.7769 3.32851 18.7769 3.00639C18.7769 2.68426 18.7573 2.43164 18.7186 2.24828C18.6803 2.06516 18.6215 1.88741 18.5441 1.71509C18.4662 1.54294 18.3522 1.40977 18.2025 1.31523C18.0526 1.22081 17.8662 1.14588 17.6444 1.09021C17.0557 0.956983 16.306 0.884913 15.395 0.873709C13.3291 0.851533 12.0017 0.984935 11.413 1.27374C11.1797 1.39576 10.9687 1.56248 10.7799 1.77338C10.58 2.01784 10.5521 2.15124 10.6964 2.17318C11.363 2.27303 11.8348 2.51188 12.1126 2.8895L12.2126 3.0896C12.2905 3.23398 12.3682 3.48958 12.446 3.85605C12.5237 4.22253 12.5738 4.62793 12.5959 5.07202C12.6513 5.88299 12.6513 6.57719 12.5959 7.15469C12.5402 7.73241 12.4877 8.18216 12.4376 8.50429C12.3875 8.82641 12.3125 9.08744 12.2126 9.28731C12.1126 9.48724 12.046 9.60943 12.0126 9.65378C11.9793 9.69813 11.9515 9.72609 11.9294 9.73706C11.7851 9.79238 11.6349 9.82056 11.4795 9.82056C11.3239 9.82056 11.1351 9.74272 10.913 9.58714C10.691 9.43156 10.4606 9.21786 10.2217 8.94569C9.98285 8.67346 9.71348 8.29304 9.41347 7.80436C9.1137 7.31569 8.80266 6.73814 8.48053 6.07171L8.21402 5.58841C8.04741 5.27749 7.81983 4.82476 7.53102 4.23064C7.24204 3.63628 6.98662 3.06136 6.76457 2.50598C6.67581 2.27274 6.54247 2.09516 6.36478 1.97296L6.28139 1.92283C6.22595 1.87848 6.13695 1.83139 6.01487 1.7812C5.89262 1.73108 5.76505 1.69513 5.63165 1.67301L1.06651 1.70616C0.600017 1.70616 0.283494 1.81184 0.116829 2.02291L0.0501278 2.12276C0.0168065 2.17837 0 2.26719 0 2.38945C0 2.51165 0.0333213 2.66162 0.100022 2.8392C0.766448 4.40547 1.49117 5.91602 2.27419 7.37107C3.05721 8.82612 3.73765 9.9982 4.31508 10.8863C4.89263 11.775 5.48132 12.6137 6.08117 13.4021C6.68101 14.1908 7.07806 14.6962 7.27233 14.9183C7.46683 15.1407 7.61961 15.307 7.73066 15.4181L8.14726 15.8179C8.41383 16.0845 8.80529 16.4038 9.32179 16.7758C9.83842 17.1481 10.4104 17.5146 11.0379 17.8759C11.6656 18.2366 12.3958 18.5309 13.229 18.7586C14.062 18.9864 14.8728 19.0779 15.6615 19.0338H17.5775C17.9661 19.0002 18.2605 18.878 18.4606 18.6671L18.5269 18.5836C18.5715 18.5173 18.6132 18.4143 18.6518 18.2757C18.6907 18.1369 18.7101 17.9839 18.7101 17.8176C18.6987 17.34 18.7351 16.9097 18.8182 16.5265C18.9012 16.1434 18.9959 15.8546 19.1017 15.6601C19.2075 15.4658 19.3269 15.3018 19.4598 15.1689C19.593 15.0357 19.6879 14.955 19.7435 14.9272C19.7989 14.8992 19.843 14.8803 19.8764 14.8689C20.1429 14.7801 20.4567 14.8661 20.818 15.1273C21.179 15.3884 21.5177 15.7107 21.8344 16.0937C22.151 16.4771 22.5314 16.9073 22.9756 17.3848C23.4201 17.8625 23.8087 18.2176 24.1418 18.4512L24.4749 18.6511C24.6974 18.7845 24.9862 18.9067 25.3417 19.0178C25.6966 19.1288 26.0075 19.1565 26.2745 19.101L30.5395 19.0345C30.9614 19.0345 31.2896 18.9647 31.5225 18.8261C31.7558 18.6872 31.8944 18.5343 31.9391 18.3679C31.9837 18.2014 31.9861 18.0124 31.9475 17.8012C31.908 17.5904 31.8691 17.4431 31.8304 17.3598Z" />
	</symbol>
	<symbol xmlns="http://www.w3.org/2000/svg" id="mail" viewBox="0 0 29 22">
		<path fill-rule="evenodd" clip-rule="evenodd" d="M0.090625 2.94344C0.273358 2.14275 0.722563 1.42785 1.36467 0.915809C2.00678 0.403769 2.80373 0.124945 3.625 0.125H25.375C26.1963 0.124945 26.9932 0.403769 27.6353 0.915809C28.2774 1.42785 28.7266 2.14275 28.9094 2.94344L14.5 11.7504L0.090625 2.94344ZM0 5.01331V17.8893L10.5179 11.4404L0 5.01331ZM12.2543 12.5044L0.346188 19.8033C0.640404 20.4237 1.10477 20.9478 1.68523 21.3145C2.26569 21.6813 2.93838 21.8757 3.625 21.875H25.375C26.0615 21.8752 26.7339 21.6804 27.3141 21.3133C27.8942 20.9462 28.3582 20.422 28.652 19.8015L16.7439 12.5026L14.5 13.8746L12.2543 12.5026V12.5044ZM18.4821 11.4423L29 17.8893V5.01331L18.4821 11.4404V11.4423Z" />
	</symbol>
	<symbol xmlns="http://www.w3.org/2000/svg" id="scroll" viewBox="0 0 14 14">
		<path fill-rule="evenodd" clip-rule="evenodd" d="M12 0L6.70711 5.29289L1.41421 0L0 1.41421L6.70711 8.12132L13.4142 1.41421L12 0ZM13.4142 6.41421L12 5L6.70711 10.2929L1.41421 5L0 6.41421L6.70711 13.1213L13.4142 6.41421Z" fill="#464E62"/>
	</symbol>
	<symbol xmlns="http://www.w3.org/2000/svg" id="star" viewBox="0 0 23 23">
		<path d="M15.0156 1.1875L12.1328 10.1641L22.0234 9.74219L21.8359 13.4219L12.625 12.3203L16.8438 21.2969L12.9531 22.5156L10.3047 13L4.25781 21.0625L1.53906 18.2266L8.78125 11.5703L0.0390625 9.01562L1.32812 5.40625L10.0234 9.74219L10.9844 0.367188L15.0156 1.1875Z" fill="#DB0200" fill-opacity="0.5"/>
	</symbol>
	<symbol xmlns="http://www.w3.org/2000/svg" id="showAll" viewBox="0 0 19 19">
		<path fill-rule="evenodd" clip-rule="evenodd" d="M10.0208 12.8493L11.435 14.2635L8.6066 17.0919C6.65398 19.0446 3.48816 19.0446 1.53553 17.0919C-0.417088 15.1393 -0.417088 11.9735 1.53553 10.0209L4.36396 7.19244L5.77817 8.60665L2.94975 11.4351C1.77817 12.6066 1.77817 14.5061 2.94975 15.6777C4.12132 16.8493 6.02082 16.8493 7.19239 15.6777L10.0208 12.8493ZM8.6066 5.77822L7.19239 4.36401L10.0208 1.53558C11.9734 -0.41704 15.1393 -0.41704 17.0919 1.53558C19.0445 3.4882 19.0445 6.65403 17.0919 8.60665L14.2635 11.4351L12.8492 10.0209L15.6777 7.19244C16.8492 6.02086 16.8492 4.12137 15.6777 2.94979C14.5061 1.77822 12.6066 1.77822 11.435 2.94979L8.6066 5.77822ZM12.1421 5.07112L5.07107 12.1422L6.48528 13.5564L13.5563 6.48533L12.1421 5.07112Z"/>
	</symbol>
	<symbol xmlns="http://www.w3.org/2000/svg" id="arrow" viewBox="0 0 12 7">
		<path fill-rule="evenodd" clip-rule="evenodd" d="M6.04159 4.92397L1.27265 0.155029L0.34787 1.07981L6.04159 6.77353L11.7353 1.07981L10.8105 0.15503L6.04159 4.92397Z" />
	</symbol>
	<symbol xmlns="http://www.w3.org/2000/svg" id="slider_prev" viewBox="0 0 53 53">
		<path fill-rule="evenodd" clip-rule="evenodd" d="M21.8284 26.7071L29.1213 19.4142L27.7071 18L19 26.7071L27.7071 35.4142L29.1213 34L21.8284 26.7071Z" />
	</symbol>
	<symbol xmlns="http://www.w3.org/2000/svg" id="slider_next" viewBox="0 0 53 53">
		<path fill-rule="evenodd" clip-rule="evenodd" d="M30.2929 26.7071L23 19.4142L24.4142 18L33.1213 26.7071L24.4142 35.4142L23 34L30.2929 26.7071Z" />
	</symbol>
	<symbol xmlns="http://www.w3.org/2000/svg" id="quote" viewBox="0 0 77 58">
		<path d="M0.414879 43.125L0.510719 43.769L0.610382 43.746C1.29153 46.9314 2.86067 49.8588 5.13624 52.1895C7.4118 54.5202 10.3008 56.159 13.4689 56.9163C16.6371 57.6735 19.9548 57.5182 23.0384 56.4684C26.122 55.4186 28.8453 53.5172 30.8933 50.9842C32.9412 48.4511 34.2301 45.3899 34.6108 42.1549C34.9915 38.9198 34.4484 35.6431 33.0445 32.7038C31.6405 29.7646 29.433 27.2829 26.6773 25.5459C23.9217 23.809 20.7306 22.8878 17.4732 22.8889C16.6184 22.8889 15.798 23.0192 14.9815 23.138C15.246 22.2487 15.5182 21.344 15.9552 20.5314C16.3922 19.3507 17.0745 18.3272 17.753 17.296C18.3204 16.1805 19.3209 15.4254 20.0569 14.4709C20.8274 13.5432 21.8777 12.926 22.7095 12.1555C23.526 11.3505 24.5955 10.948 25.4465 10.3807C26.3359 9.87085 27.1102 9.30735 27.9382 9.03902L30.0044 8.18802L31.8214 7.43285L29.966 1.52588e-05L27.6775 0.552021C26.9454 0.736019 26.0522 0.950684 25.0364 1.20752C23.9975 1.39919 22.8897 1.92435 21.6554 2.40352C20.4402 2.95169 19.0257 3.31585 17.7147 4.19368C16.396 5.02935 14.8742 5.72702 13.5325 6.84636C12.233 8.00019 10.6652 9.00069 9.50755 10.465C8.24255 11.8374 6.99288 13.2787 6.02305 14.9193C4.89988 16.4834 4.13705 18.2007 3.33205 19.8989C2.60371 21.597 2.01721 23.3335 1.53805 25.0202C0.629547 28.4012 0.223213 31.6135 0.0660477 34.362C-0.0642853 37.1144 0.0123749 39.4029 0.173378 41.0589C0.227249 41.7504 0.307808 42.4397 0.414879 43.125ZM42.5815 43.125L42.6774 43.769L42.777 43.746C43.4582 46.9314 45.0273 49.8588 47.3029 52.1895C49.5785 54.5202 52.4675 56.159 55.6356 56.9163C58.8037 57.6735 62.1215 57.5182 65.2051 56.4684C68.2887 55.4186 71.012 53.5172 73.0599 50.9842C75.1079 48.4511 76.3968 45.3899 76.7775 42.1549C77.1582 38.9198 76.6151 35.6431 75.2111 32.7038C73.8071 29.7646 71.5996 27.2829 68.844 25.5459C66.0884 23.809 62.8973 22.8878 59.6399 22.8889C58.785 22.8889 57.9647 23.0192 57.1482 23.138C57.4127 22.2487 57.6849 21.344 58.1219 20.5314C58.5589 19.3507 59.2412 18.3272 59.9197 17.296C60.487 16.1805 61.4875 15.4254 62.2235 14.4709C62.994 13.5432 64.0444 12.926 64.8762 12.1555C65.6927 11.3505 66.7622 10.948 67.6132 10.3807C68.5025 9.87085 69.2769 9.30735 70.1049 9.03902L72.171 8.18802C73.3249 7.71652 73.9842 7.44052 73.9842 7.44052L72.1289 0.00768661L69.8404 0.559685C69.1082 0.743683 68.215 0.958355 67.1992 1.21519C66.1604 1.40686 65.0525 1.93202 63.8182 2.41119C62.603 2.95936 61.1885 3.32352 59.8775 4.20135C58.5589 5.03702 57.037 5.73468 55.6954 6.85402C54.3959 8.00785 52.828 9.00835 51.6704 10.4727C50.4054 11.845 49.1557 13.2864 48.1859 14.927C47.0627 16.491 46.2999 18.2084 45.4949 19.9065C44.7665 21.6047 44.18 23.3412 43.7009 25.0279C42.7924 28.4089 42.386 31.6212 42.2289 34.3697C42.0985 37.122 42.1752 39.4105 42.3362 41.0665C42.3935 41.7554 42.4753 42.442 42.5815 43.125Z" fill="#DDE3EC"/>
	</symbol>
</svg>
